<svg xmlns="http://www.w3.org/2000/svg" xmlns:xlink="http://www.w3.org/1999/xlink" preserveAspectRatio="xMidYMid" width="168" height="169" viewBox="0 0 168 169">  <defs>    <style>      .cls-2 {        fill: #ffffff;      }    </style>  </defs>  <path d="M147.960,133.868 C147.960,133.868 86.312,133.868 86.312,133.868 C86.312,133.868 86.312,164.386 86.312,164.386 C86.312,164.386 125.620,164.386 125.620,164.386 C126.897,164.386 127.932,165.419 127.932,166.695 C127.932,167.970 126.897,169.003 125.620,169.003 C125.620,169.003 42.380,169.003 42.380,169.003 C41.103,169.003 40.068,167.970 40.068,166.695 C40.068,165.419 41.103,164.386 42.380,164.386 C42.380,164.386 81.688,164.386 81.688,164.386 C81.688,164.386 81.688,133.868 81.688,133.868 C81.688,133.868 20.040,133.868 20.040,133.868 C8.992,133.868 0.004,124.895 0.004,113.864 C0.004,113.864 0.004,51.200 0.004,51.200 C0.004,51.029 0.015,50.860 0.033,50.693 C0.038,50.650 0.047,50.607 0.053,50.564 C0.070,50.440 0.090,50.316 0.117,50.194 C0.128,50.145 0.143,50.096 0.155,50.046 C0.185,49.933 0.217,49.820 0.255,49.710 C0.272,49.658 0.292,49.607 0.311,49.556 C0.352,49.449 0.396,49.345 0.445,49.243 C0.459,49.212 0.469,49.181 0.484,49.150 C0.484,49.150 23.602,2.564 23.602,2.564 C24.383,0.992 25.988,-0.003 27.746,-0.003 C27.746,-0.003 140.254,-0.003 140.254,-0.003 C142.012,-0.003 143.617,0.992 144.398,2.564 C144.398,2.564 167.516,49.150 167.516,49.150 C167.531,49.181 167.541,49.212 167.555,49.243 C167.604,49.345 167.648,49.449 167.689,49.556 C167.708,49.607 167.727,49.658 167.745,49.710 C167.783,49.820 167.815,49.933 167.845,50.046 C167.857,50.096 167.872,50.145 167.883,50.194 C167.910,50.316 167.930,50.440 167.947,50.564 C167.953,50.607 167.962,50.650 167.967,50.693 C167.985,50.860 167.996,51.029 167.996,51.200 C167.996,51.200 167.996,113.864 167.996,113.864 C167.996,124.895 159.008,133.868 147.960,133.868 ZM137.386,9.230 C137.386,9.230 30.614,9.230 30.614,9.230 C30.614,9.230 12.078,46.584 12.078,46.584 C12.078,46.584 155.922,46.584 155.922,46.584 C155.922,46.584 137.386,9.230 137.386,9.230 ZM158.749,55.816 C158.749,55.816 9.251,55.816 9.251,55.816 C9.251,55.816 9.251,85.698 9.251,85.698 C9.251,85.698 158.749,85.698 158.749,85.698 C158.749,85.698 158.749,55.816 158.749,55.816 ZM158.749,94.930 C158.749,94.930 9.251,94.930 9.251,94.930 C9.251,94.930 9.251,113.864 9.251,113.864 C9.251,119.803 14.091,124.635 20.040,124.635 C20.040,124.635 147.960,124.635 147.960,124.635 C153.909,124.635 158.749,119.803 158.749,113.864 C158.749,113.864 158.749,94.930 158.749,94.930 ZM140.504,114.470 C138.093,114.470 136.130,112.511 136.130,110.103 C136.130,107.695 138.093,105.735 140.504,105.735 C142.915,105.735 144.878,107.695 144.878,110.103 C144.878,112.511 142.915,114.470 140.504,114.470 ZM140.504,108.813 C139.792,108.813 139.213,109.391 139.213,110.103 C139.213,110.814 139.792,111.393 140.504,111.393 C141.216,111.393 141.796,110.814 141.796,110.103 C141.796,109.391 141.216,108.813 140.504,108.813 ZM122.788,114.470 C120.376,114.470 118.414,112.511 118.414,110.103 C118.414,107.695 120.376,105.735 122.788,105.735 C125.199,105.735 127.161,107.695 127.161,110.103 C127.161,112.511 125.199,114.470 122.788,114.470 ZM122.788,108.813 C122.076,108.813 121.496,109.391 121.496,110.103 C121.496,110.814 122.076,111.393 122.788,111.393 C123.500,111.393 124.079,110.814 124.079,110.103 C124.079,109.391 123.500,108.813 122.788,108.813 ZM104.842,114.470 C102.431,114.470 100.469,112.511 100.469,110.103 C100.469,107.695 102.431,105.735 104.842,105.735 C107.254,105.735 109.216,107.695 109.216,110.103 C109.216,112.511 107.254,114.470 104.842,114.470 ZM104.842,108.813 C104.131,108.813 103.551,109.391 103.551,110.103 C103.551,110.814 104.131,111.393 104.842,111.393 C105.554,111.393 106.134,110.814 106.134,110.103 C106.134,109.391 105.554,108.813 104.842,108.813 ZM25.691,120.910 C19.722,120.910 14.867,116.062 14.867,110.103 C14.867,104.144 19.722,99.296 25.691,99.296 C31.660,99.296 36.516,104.144 36.516,110.103 C36.516,116.062 31.660,120.910 25.691,120.910 ZM25.691,103.912 C22.272,103.912 19.490,106.689 19.490,110.103 C19.490,113.517 22.272,116.294 25.691,116.294 C29.111,116.294 31.892,113.517 31.892,110.103 C31.892,106.689 29.111,103.912 25.691,103.912 ZM25.691,59.167 C31.660,59.167 36.516,64.015 36.516,69.974 C36.516,75.933 31.660,80.781 25.691,80.781 C19.722,80.781 14.867,75.933 14.867,69.974 C14.867,64.015 19.722,59.167 25.691,59.167 ZM25.691,76.165 C29.111,76.165 31.892,73.388 31.892,69.974 C31.892,66.560 29.111,63.783 25.691,63.783 C22.272,63.783 19.490,66.560 19.490,69.974 C19.490,73.388 22.272,76.165 25.691,76.165 ZM104.842,65.606 C107.254,65.606 109.216,67.566 109.216,69.974 C109.216,72.382 107.254,74.341 104.842,74.341 C102.431,74.341 100.469,72.382 100.469,69.974 C100.469,67.566 102.431,65.606 104.842,65.606 ZM104.842,71.264 C105.554,71.264 106.134,70.685 106.134,69.974 C106.134,69.263 105.554,68.684 104.842,68.684 C104.131,68.684 103.551,69.263 103.551,69.974 C103.551,70.685 104.131,71.264 104.842,71.264 ZM122.788,65.606 C125.199,65.606 127.161,67.566 127.161,69.974 C127.161,72.382 125.199,74.341 122.788,74.341 C120.376,74.341 118.414,72.382 118.414,69.974 C118.414,67.566 120.376,65.606 122.788,65.606 ZM122.788,71.264 C123.500,71.264 124.079,70.685 124.079,69.974 C124.079,69.263 123.500,68.684 122.788,68.684 C122.076,68.684 121.496,69.263 121.496,69.974 C121.496,70.685 122.076,71.264 122.788,71.264 ZM140.504,65.606 C142.915,65.606 144.878,67.566 144.878,69.974 C144.878,72.382 142.915,74.341 140.504,74.341 C138.093,74.341 136.130,72.382 136.130,69.974 C136.130,67.566 138.093,65.606 140.504,65.606 ZM140.504,71.264 C141.216,71.264 141.796,70.685 141.796,69.974 C141.796,69.263 141.216,68.684 140.504,68.684 C139.792,68.684 139.213,69.263 139.213,69.974 C139.213,70.685 139.792,71.264 140.504,71.264 ZM6.169,164.386 C6.169,164.386 15.929,164.386 15.929,164.386 C17.205,164.386 18.241,165.419 18.241,166.695 C18.241,167.970 17.205,169.003 15.929,169.003 C15.929,169.003 6.169,169.003 6.169,169.003 C4.892,169.003 3.857,167.970 3.857,166.695 C3.857,165.419 4.892,164.386 6.169,164.386 ZM23.894,164.386 C23.894,164.386 33.655,164.386 33.655,164.386 C34.931,164.386 35.966,165.419 35.966,166.695 C35.966,167.970 34.931,169.003 33.655,169.003 C33.655,169.003 23.894,169.003 23.894,169.003 C22.618,169.003 21.582,167.970 21.582,166.695 C21.582,165.419 22.618,164.386 23.894,164.386 ZM133.834,164.386 C133.834,164.386 143.594,164.386 143.594,164.386 C144.870,164.386 145.906,165.419 145.906,166.695 C145.906,167.970 144.870,169.003 143.594,169.003 C143.594,169.003 133.834,169.003 133.834,169.003 C132.557,169.003 131.522,167.970 131.522,166.695 C131.522,165.419 132.557,164.386 133.834,164.386 ZM150.530,164.386 C150.530,164.386 160.290,164.386 160.290,164.386 C161.566,164.386 162.602,165.419 162.602,166.695 C162.602,167.970 161.566,169.003 160.290,169.003 C160.290,169.003 150.530,169.003 150.530,169.003 C149.253,169.003 148.218,167.970 148.218,166.695 C148.218,165.419 149.253,164.386 150.530,164.386 Z" id="path-1" class="cls-2" fill-rule="evenodd"/></svg>