<svg xmlns="http://www.w3.org/2000/svg" xmlns:xlink="http://www.w3.org/1999/xlink" preserveAspectRatio="xMidYMid" width="102" height="109" viewBox="0 0 102 109">  <defs>    <style>      .cls-2 {        fill: #ffffff;      }    </style>  </defs>  <path d="M87.934,108.079 C82.331,106.578 78.993,100.803 80.493,95.206 C80.893,93.712 81.601,92.381 82.527,91.259 C82.527,91.259 69.759,73.270 69.759,73.270 C65.727,75.320 60.954,75.950 56.249,74.689 C51.200,73.337 47.170,70.060 44.739,65.860 C44.739,65.860 20.969,75.288 20.969,75.288 C21.113,76.558 21.030,77.873 20.680,79.180 C19.180,84.776 13.403,88.108 7.801,86.607 C2.199,85.106 -1.139,79.332 0.361,73.735 C1.861,68.138 7.638,64.806 13.240,66.307 C15.601,66.940 17.557,68.333 18.921,70.150 C18.921,70.150 42.690,60.723 42.690,60.723 C41.985,57.765 41.983,54.598 42.823,51.461 C45.286,42.268 54.146,36.464 63.340,37.538 C63.340,37.538 68.150,19.585 68.150,19.585 C64.156,17.255 62.034,12.460 63.286,7.787 C64.786,2.191 70.564,-1.141 76.166,0.360 C81.768,1.861 85.106,7.636 83.606,13.232 C82.354,17.905 78.120,20.996 73.496,21.017 C73.496,21.017 68.685,38.970 68.685,38.970 C77.185,42.638 81.954,52.094 79.491,61.286 C78.559,64.765 76.711,67.758 74.276,70.078 C74.276,70.078 87.042,88.064 87.042,88.064 C89.006,87.344 91.202,87.197 93.373,87.779 C98.974,89.280 102.312,95.054 100.812,100.651 C99.312,106.247 93.535,109.580 87.934,108.079 ZM11.809,71.648 C9.155,70.937 6.417,72.515 5.706,75.167 C4.996,77.819 6.577,80.556 9.232,81.267 C11.886,81.978 14.624,80.399 15.334,77.747 C16.045,75.095 14.464,72.359 11.809,71.648 ZM78.261,11.800 C78.971,9.148 77.390,6.412 74.735,5.701 C72.081,4.989 69.342,6.568 68.632,9.220 C67.921,11.872 69.503,14.608 72.158,15.320 C74.812,16.031 77.550,14.452 78.261,11.800 ZM64.633,43.398 C57.472,41.479 50.086,45.738 48.169,52.893 C46.251,60.048 50.519,67.430 57.680,69.349 C64.842,71.268 72.228,67.008 74.146,59.854 C76.063,52.699 71.796,45.317 64.633,43.398 ZM91.942,93.119 C89.287,92.408 86.549,93.987 85.838,96.639 C85.128,99.291 86.710,102.027 89.365,102.738 C92.018,103.449 94.756,101.871 95.466,99.218 C96.177,96.566 94.596,93.830 91.942,93.119 Z" id="path-1" class="cls-2" fill-rule="evenodd"/></svg>