<svg xmlns="http://www.w3.org/2000/svg" xmlns:xlink="http://www.w3.org/1999/xlink" preserveAspectRatio="xMidYMid" width="33" height="47" viewBox="0 0 33 47">  <defs>    <style>      .cls-2 {        fill: #ffe13e;      }    </style>  </defs>  <path d="M16.500,0.000 C7.556,0.000 -0.000,7.707 -0.000,16.829 C-0.000,25.476 14.713,45.562 15.339,46.413 C15.610,46.782 16.041,47.000 16.500,47.000 C16.959,47.000 17.391,46.782 17.662,46.413 C18.288,45.562 33.000,25.476 33.000,16.829 C33.000,7.707 25.444,0.000 16.500,0.000 ZM16.500,7.196 C21.842,7.196 26.188,11.522 26.188,16.838 C26.188,22.155 21.842,26.480 16.500,26.480 C11.158,26.480 6.812,22.155 6.812,16.838 C6.812,11.522 11.158,7.196 16.500,7.196 Z" id="path-1" class="cls-2" fill-rule="evenodd"/></svg>